<svg width="256" height="256" xmlns="http://www.w3.org/2000/svg" preserveAspectRatio="xMidYMid">

 <g>
  <title>background</title>
  <rect fill="none" id="canvas_background" height="402" width="582" y="-1" x="-1"/>
 </g>
 <g>
  <title>Layer 1</title>
  <g id="svg_1">
   <path id="svg_2" fill="#F7DF1E" d="m0,0l256,0l0,256l-256,0l0,-256z"/>
   <path id="svg_3" fill="#000000" d="m86.90265,202.07624c3.77946,6.70111 7.21758,12.3709 15.46444,12.3709c7.90511,0 12.88899,-3.09232 12.88899,-15.12026l0,-81.79809l24.05749,0l0,82.13821c0,24.91733 -14.60581,36.25894 -35.91517,36.25894c-19.2451,0 -30.41646,-9.96734 -36.08706,-21.99568"/>
   <path id="svg_4" fill="#000000" d="m152.38095,211.35441l19.58847,-11.34161c5.15657,8.42118 11.85849,14.60703 23.71495,14.60703c9.96815,0 16.32467,-4.98387 16.32467,-11.85767c0,-8.24848 -6.52962,-11.17013 -17.52787,-15.98009l-6.01275,-2.57951c-17.35721,-7.38783 -28.87111,-16.66722 -28.87111,-36.25772c0,-18.04353 13.7472,-31.79155 35.22844,-31.79155c15.29417,0 26.29201,5.32765 34.19591,19.24714l-18.73107,12.02835c-4.12444,-7.38865 -8.59103,-10.30949 -15.46443,-10.30949c-7.04569,0 -11.51391,4.46781 -11.51391,10.30949c0,7.21757 4.46822,10.13963 14.77771,14.60784l6.01396,2.57747c20.44953,8.76455 31.96343,17.69936 31.96343,37.8043c0,21.65353 -17.01221,33.50959 -39.86692,33.50959c-22.33945,0 -36.7746,-10.65367 -43.81907,-24.57357"/>
   <text font-weight="bold" xml:space="preserve" text-anchor="start" font-family="Arvo, sans-serif" font-size="57" id="svg_5" y="104.453125" x="98.5" fill-opacity="null" stroke-opacity="null" stroke-width="10" stroke="null" fill="#000000">iQOS</text>
  </g>
 </g>
</svg>